<svg xmlns="http://www.w3.org/2000/svg" fill="none" viewBox="0 0 512 512" height="512" width="512"><g clip-path="url(#clip0_3582_1936)"><path fill="#040000" d="M402.655 121.068C402.717 121.064 402.766 121.046 402.828 121.042C404.969 120.917 406.952 120.595 408.811 120.137C409.449 119.979 410.001 119.74 410.606 119.545C411.822 119.155 413 118.735 414.07 118.204C414.68 117.902 415.224 117.552 415.785 117.207C416.707 116.64 417.57 116.036 418.357 115.362C418.846 114.942 419.306 114.512 419.741 114.054C420.447 113.31 421.057 112.513 421.617 111.675C421.947 111.181 422.293 110.705 422.57 110.18C423.089 109.201 423.464 108.152 423.795 107.076C423.94 106.605 424.147 106.168 424.255 105.68C424.608 104.082 424.791 102.411 424.734 100.656C424.728 100.457 424.662 100.243 424.65 100.042C424.568 98.6439 424.416 97.2219 424.065 95.7489C424.045 95.7939 424.006 95.8269 423.986 95.8719C423.555 94.0149 422.896 92.1099 422.049 90.1719L390.5 121.721L402.655 121.068Z" opacity="0.07"/><path fill="#D8D8D8" d="M467.424 198.785V492.733C467.424 503.31 458.815 512.001 448.156 512.001H64.2612C53.6022 512.001 44.9932 503.31 44.9932 492.733V198.785C44.9932 188.208 53.6022 179.516 64.2612 179.516H448.156C458.815 179.516 467.424 188.207 467.424 198.785Z"/><path fill="#191919" d="M467.424 198.785V297.67H44.9922V198.785C44.9922 188.208 53.6012 179.516 64.2602 179.516H448.155C458.815 179.516 467.424 188.207 467.424 198.785Z" opacity="0.1"/><path fill="#D8D8D8" d="M493.416 157.624V230.845C493.416 233.633 493.006 236.338 492.269 238.962C489.071 250.195 479.314 258.723 467.425 260.199C466.277 260.363 465.047 260.445 463.817 260.445H48.6C47.37 260.445 46.14 260.363 44.993 260.199C30.397 258.394 19 245.849 19 230.844V157.623C19 141.388 32.283 128.023 48.6 128.023H463.817C480.133 128.024 493.416 141.389 493.416 157.624Z"/><path fill="url(#paint0_linear_3582_1936)" d="M304.995 135.24C304.995 136.961 304.831 138.601 304.339 140.159C300.731 155.246 280.561 166.725 256.209 166.725C231.857 166.725 211.686 155.246 208.079 140.159C207.587 138.601 207.423 136.961 207.423 135.24C207.423 133.518 207.587 131.878 208.079 130.32C208.243 129.5 208.407 128.762 208.735 128.024C208.735 127.86 208.817 127.778 208.899 127.696C208.981 127.286 209.145 126.876 209.391 126.466C211.523 121.628 215.376 117.283 220.542 113.839C226.527 109.658 234.153 106.542 242.844 104.984C247.026 104.164 251.535 103.754 256.209 103.754C260.883 103.754 265.392 104.164 269.574 104.984C278.265 106.542 285.891 109.658 291.877 113.839C297.043 117.283 300.896 121.628 303.028 126.466C303.274 126.876 303.438 127.286 303.52 127.696C303.602 127.778 303.684 127.86 303.684 128.024C304.012 128.762 304.176 129.5 304.34 130.32C304.831 131.878 304.995 133.517 304.995 135.24Z"/><path fill="#00BA78" d="M304.363 259.145H208.054V511.788H304.363V259.145Z"/><path fill="#29D698" d="M304.339 127.695H208.078V260.443H304.339V127.695Z"/><path fill="url(#paint1_linear_3582_1936)" d="M247.107 116.298C247.107 118.84 246.287 121.053 244.647 122.857C244.401 123.185 243.991 123.513 243.663 123.759C240.465 126.465 235.217 127.777 228.084 127.449L209.39 126.465L109.767 121.053C101.977 120.643 95.9918 117.937 92.2198 113.674C91.3998 112.69 90.6618 111.706 90.0068 110.64C88.0388 107.196 87.3008 103.096 87.8748 98.5872C87.8748 98.1772 87.9568 97.7672 88.1208 97.2752C88.1208 96.7832 88.2028 96.2912 88.4488 95.7992C88.9408 93.4212 89.8428 91.0432 91.0728 88.5842L129.364 13.8872C137.973 -3.00383 154.782 -4.72483 166.671 10.0342L240.957 102.441C241.695 103.343 242.269 104.163 242.843 104.983C243.663 106.131 244.319 107.196 244.811 108.262C245.221 109 245.549 109.738 245.795 110.394C246.123 111.132 246.369 111.87 246.533 112.526C246.697 113.182 246.861 113.838 246.943 114.494C247.025 115.068 247.107 115.724 247.107 116.298Z"/><path fill="#191919" d="M247.107 116.3C247.107 118.842 246.287 121.055 244.647 122.859C244.401 123.187 243.991 123.515 243.663 123.761C240.465 126.467 235.217 127.779 228.084 127.451L209.39 126.467L109.767 121.055C101.977 120.645 95.9918 117.939 92.2198 113.676C91.3998 112.692 90.6618 111.708 90.0068 110.642C88.0388 107.198 87.3008 103.098 87.8748 98.5887C87.8748 98.1787 87.9568 97.7687 88.1208 97.2767C88.1208 96.7847 88.2028 96.2928 88.3668 95.7188L88.4488 95.8008C91.4008 102.606 98.6158 107.28 108.947 107.772L220.541 113.839L227.264 114.167C236.201 114.659 242.269 112.363 244.811 108.263C245.221 109.001 245.549 109.739 245.795 110.395C246.123 111.133 246.369 111.871 246.533 112.527C246.697 113.183 246.861 113.839 246.943 114.495C247.025 115.07 247.107 115.726 247.107 116.3Z" opacity="0.07"/><path fill="url(#paint2_linear_3582_1936)" d="M422.41 110.642C421.754 111.708 421.016 112.692 420.196 113.676C416.425 117.939 410.439 120.645 402.65 121.055L303.027 126.467L284.332 127.451C277.199 127.779 271.951 126.467 268.753 123.761C268.425 123.515 268.015 123.187 267.769 122.859C266.129 121.055 265.309 118.841 265.309 116.3C265.309 115.726 265.391 115.07 265.473 114.496C265.555 113.84 265.719 113.184 265.883 112.528C266.047 111.872 266.293 111.134 266.621 110.396C266.867 109.74 267.195 109.002 267.605 108.264C268.097 107.198 268.753 106.132 269.573 104.985C270.147 104.165 270.721 103.345 271.459 102.443L345.745 10.0359C352.386 1.75488 360.586 -1.27912 368.047 0.605881C373.869 1.99988 379.28 6.42788 383.052 13.8889L384.856 17.4149L421.343 88.5859C422.573 91.0459 423.475 93.4229 423.967 95.8009C424.213 96.2929 424.295 96.7849 424.295 97.2769C424.459 97.7689 424.541 98.1789 424.541 98.5889C425.116 103.099 424.378 107.198 422.41 110.642Z"/><path fill="#191919" d="M284.291 127.429L402.654 121.066C418.821 120.199 427.322 109.4 424.067 95.75C421.081 102.601 413.871 107.243 403.508 107.801L285.151 114.157C276.182 114.638 270.166 112.366 267.584 108.269C261.421 120.045 267.957 128.309 284.291 127.429Z" opacity="0.07"/><path fill="#191919" d="M493.416 157.622V230.843C493.416 233.631 493.006 236.336 492.269 238.96C489.071 250.111 479.314 258.557 467.425 260.032V492.731C467.425 503.308 458.816 511.999 448.157 511.999H64.2612C53.6022 511.999 44.9932 503.308 44.9932 492.731V467.231L208.078 304.145L214.556 297.668L251.781 260.443L332.709 179.515L384.201 128.023H463.817C480.133 128.022 493.416 141.387 493.416 157.622Z" opacity="0.03"/></g><defs><linearGradient gradientUnits="userSpaceOnUse" y2="135.239" x2="304.994" y1="135.239" x1="207.422" id="paint0_linear_3582_1936"><stop stop-color="#00BA78" offset="0.0338"/><stop stop-color="#00BA78" offset="0.9903"/></linearGradient><linearGradient gradientUnits="userSpaceOnUse" y2="63.7495" x2="247.107" y1="63.7495" x1="87.6856" id="paint1_linear_3582_1936"><stop stop-color="#00BA78" offset="0.0338"/><stop stop-color="#139567" offset="0.9903"/></linearGradient><linearGradient gradientUnits="userSpaceOnUse" y2="63.7834" x2="424.731" y1="63.7834" x1="265.31" id="paint2_linear_3582_1936"><stop stop-color="#00BA78" offset="0.0338"/><stop stop-color="#139567" offset="0.9903"/></linearGradient><clipPath id="clip0_3582_1936"><rect fill="white" height="512" width="512"/></clipPath></defs></svg>