<svg xmlns="http://www.w3.org/2000/svg" fill="none" viewBox="2 0 26 24"><path d="M2 22V2C2 0.895431 2.89543 0 4 0H26C27.1046 0 28 0.89543 28 2V22C28 23.1046 27.1046 24 26 24H4C2.89543 24 2 23.1046 2 22Z" fill="url(#paint0_linear_18_174)"/><g filter="url(#filter0_f_18_174)"><path d="M20 9.00335H21.3667V15H24.1V11.6667V9.00201H25.4667V7H20V9.00335Z" fill="white"/></g><g filter="url(#filter1_f_18_174)"><path d="M5 7V15L6.72238 14.9999H10.3573L12.6533 15V13.6667L6.72719 13.6165V11.5112H10.1743V10.2018H6.72719V8.31398L12.6533 8.33333V7L6.72719 7.00456L5 7Z" fill="white"/></g><g filter="url(#filter2_f_18_174)"><path d="M12.8433 8.9864V17L12.894 16.2725L12.951 14.6252L13.0589 16.8416L13.2942 14.899L13.4404 16.335L13.5389 15.3205L13.7511 17L14.1498 15.2567L14.1894 16.7791L14.493 15.1942V17L14.7623 16.7791L15.0562 14.2662L15.2696 17L15.5456 16.3789L15.5933 13.8234L15.877 17L16.0057 14.0335L16.0873 14.9323V11.0015V9.97874L16.1807 8.94444L16.4844 8.66667H17.0919H17.6993H19.4001V7H12.8433V8.9864Z" fill="white"/><path d="M17.6124 9.97874H16.0873V11.0015H17.0313L18.3067 11V9.97874H17.6124Z" fill="white"/><path fill-rule="evenodd" clip-rule="evenodd" d="M15.2792 8.45571L15.1694 8.69779L15.0652 8.5239L15.0147 8.45116L15.2792 8.45571ZM15.7724 9.11943L15.5191 9.28195L15.4115 9.10125L15.7612 8.54208L15.7724 8.7137V9.11943ZM15.4922 7.88745L15.6659 7.90109L15.7455 8.00906L15.75 8.01702L15.4743 8.01361L15.4922 7.88745Z" fill="black"/><path fill-rule="evenodd" clip-rule="evenodd" d="M13.4075 14.0667L13.4422 13.9325L13.5185 13.7905L13.4075 14.0667Z" fill="black"/><path d="M18.4801 8.36214V8.11703L17.476 8.13029V8.36214H18.4801Z" fill="black"/><path fill-rule="evenodd" clip-rule="evenodd" d="M14.4241 14.3997L14.4588 14.5269L14.9587 15.0509L15.0641 14.5544V14.5986V14.6928V14.7972L15.0847 15.1948L15.481 15.0509L15.5191 13.5459L15.6256 12.9949L15.4395 12.5187L15.3061 12.5324L15.0786 11.9778L14.9587 11.5311L14.7312 11.1254L14.7043 10.706L14.9979 10.6105L15.1985 9.86612L14.9576 9.79793L15.0383 9.55358L15.6256 9.8377L16.0932 8.95145L16.3821 8.5239H17.0142L17.068 8.36252H17.1061V8.19407L17.0557 8.18295L17.0423 8.03407L15.9607 8.01815L15.9338 7.68175L15.2658 7.69538L15.2389 7.89882H15.3734L15.3633 8.0102L15.1862 8.00792L15.1324 8.10339L15.0046 8.07157L15.1324 7.95451L15.0517 7.73744L15.4126 7.60219L15.0259 7.35898C15.0259 7.35898 14.7984 6.84414 14.3579 7.04757C13.9175 7.25101 14.1708 7.75221 14.1708 7.75221L13.8637 8.11817C13.8637 8.11817 13.6227 7.87495 13.3559 8.1318C13.0892 8.38866 13.0219 9.03874 13.0219 9.03874C13.0219 9.03874 13.0088 9.43744 12.9023 9.72157C12.7958 10.0068 12.9681 10.5696 12.9681 10.5696C12.9567 10.5696 12.9435 11.2186 12.995 11.2618C13.0354 11.3015 12.9681 11.83 12.9278 12.0198C12.8886 12.2096 12.9681 12.6017 13.0354 12.6699C13.1026 12.7381 12.902 12.9949 12.902 12.9949C12.902 12.9949 12.8754 13.0737 12.8398 13.1661V14.7972L12.9451 14.6802L13.4075 14.0667L13.4422 13.9325L13.5185 13.7905L13.7023 13.4461L13.8906 13.195L13.9444 12.8426L13.8637 12.7074L13.9992 12.0073L14.3041 12.7074L14.5182 13.1813L14.4241 14.3997ZM15.2792 8.45571L15.1694 8.69779L15.0652 8.5239L15.0147 8.45116L15.2792 8.45571ZM15.7724 9.11943L15.5191 9.28195L15.4115 9.10125L15.7612 8.54208L15.7724 8.7137V9.11943ZM15.4922 7.88745L15.6659 7.90109L15.7455 8.00906L15.75 8.01702L15.4743 8.01361L15.4922 7.88745Z" fill="black"/></g><path d="M19.4399 9.00335H20.8066V15H23.5399V11.6667V9.00201H25V7H19.4399V9.00335Z" fill="white"/><path d="M23.2345 16.3737L23.2737 16.3692L23.2015 16.217L23.2345 16.3737ZM20.8235 16.6747L20.931 15.6608H20.8171L20.8235 16.6747ZM21.3636 15.6608H21.1108L21.1306 16.819L21.1489 16.9997H21.1663L21.2075 16.5656L21.2984 16.9997H21.4436L21.4688 16.8399H21.3636V15.6608ZM21.5084 16.5881L21.5174 16.5327L21.522 16.8399L21.5244 16.9993H21.5962L21.6451 16.74V15.6608H21.5084V16.5881Z" fill="white"/><path d="M23.4504 16.2871L22.6699 14.8285L22.8372 14.4857L22.4746 14.7067L22.3072 15.2636L22.4093 15.3618L22.6058 14.9595L23.1879 16.1872L23.2737 16.3692L23.4504 16.2871Z" fill="black"/><path d="M23.2764 15.0372L23.5632 15.043L23.5389 14H22.355H21.6455L20.8164 14.0222V15V15.4949L21 15.5L21.1298 15.4932V15.4158V15.3543V15.3327H21.0844V15.1757H21.3376V15.2865H21.4203V15.2219H21.5477V15.2865H21.628V15.4158H21.5092V15.4932H21.6459V15.0827L21.774 15.4932H21.9523V15.4901H22.7619V15.7367H21.9523V15.6611H21.8265L21.9663 16.1092L21.9764 16.02L21.9826 16.1616L22.2276 16.947L22.2493 15.7908L22.3557 17H22.4035L22.4155 16.7647L22.4012 16.271L22.4408 16.2734L22.4602 15.8999L22.4936 16.2765L22.5406 16.2792L22.5324 16.714L22.5577 16.9997H22.6435L22.6516 16.2136L22.8784 16.2365L22.8932 15.8014L22.913 16.2399L22.977 16.2464L22.96 16.9997H22.9712L23.0667 15.9433L23.111 16.387L23.1696 16.3805L23.1879 16.1872L22.6058 14.9595L22.4093 15.3618L22.3072 15.2636L22.4746 14.7067L22.8372 14.4857L22.6699 14.8285L23.4504 16.2871L23.4838 16.231L23.5001 16.1287L23.5013 16.2019L23.5921 16.0494L23.2764 15.0372Z" fill="white"/><path d="M20.964 15.6611L21.0588 16.544L21.1108 15.6608H21.3636V16.8399H21.4688H21.522L21.5174 16.5327L21.5084 16.5881V15.6608H21.6451V16.74L22.2276 16.947L21.9826 16.1616L21.9663 16.1092L21.8265 15.6611H21.9523V15.7367H22.7619V15.4901H21.9523V15.4932H21.774L21.6459 15.0827V15.4932H21.5092V15.4158H21.628V15.2865H21.5477V15.2219H21.4203V15.2865H21.3376V15.1757H21.0844V15.3327H21.1298V15.3543V15.4158V15.4932L21 15.5L20.8164 15.4949L20.8171 15.6608H20.931L20.964 15.6611Z" fill="black"/><path d="M4.95117 7.00463L5 15L6.57529 14.9999H10.2102L12.5062 15V13.6667L6.5801 13.6165V11.5112H10.0273V10.2018H6.5801V8.31398L12.5062 8.33333V7L6.5801 7.00456L4.95117 7.00463Z" fill="white"/><path d="M5 15.7706L5.355 16.8588L5.42044 15.7988H5.49305L5.73388 16.6091L5.76082 16.7073L5.81979 15.7988H5.92754H6.23672L6.45133 16.373L7 16L7.46758 15.7998H7.73576L7.9735 15.7473L7.95828 15.7998H8.14215L8.47826 16.5203L8.44079 15.7998H8.6188L9 17L9.09545 15.7998H9.36715L9.63534 16.7073V15.7998H9.77119L10 17L10.1436 15.1856L10.6085 15.3924L10.9646 15.1375L11.4131 15.1114L11.782 16.9245V15.0237L12.242 16.9245L12.3123 16.7073V15.7998L12.5198 14.875L12.5 14H5V15.7706Z" fill="white"/><path d="M11.3603 16.8588L11.5398 16.373L11.782 16.9245L11.4131 15.1114L11.3603 16.8588Z" fill="white"/><path d="M12.6963 8.9864V17L12.7471 16.2725L12.804 14.6252L12.9119 16.8416L13.1472 14.899L13.2934 16.335L13.3919 15.3205L13.6041 17L14.0028 15.2567L14.0424 16.7791L14.346 15.1942V17L14.6153 16.7791L14.9093 14.2662L15.1227 17L15.3986 16.3789L15.4463 13.8234L15.7301 17L15.8588 14.0335L15.9403 14.9323V11.0015V9.97874L16.0338 8.94444L16.3375 8.66667H16.9449H17.5523H19.2531V7H12.6963V8.9864Z" fill="white"/><path d="M17.4654 9.97874H15.9403V11.0015H16.8843L18.1598 11V9.97874H17.4654Z" fill="white"/><path fill-rule="evenodd" clip-rule="evenodd" d="M15.1323 8.45571L15.0224 8.69779L14.9182 8.5239L14.8678 8.45116L15.1323 8.45571ZM15.6254 9.11943L15.3721 9.28195L15.2645 9.10125L15.6142 8.54208L15.6254 8.7137V9.11943ZM15.3452 7.88745L15.5189 7.90109L15.5985 8.00906L15.603 8.01702L15.3273 8.01361L15.3452 7.88745Z" fill="black"/><path fill-rule="evenodd" clip-rule="evenodd" d="M13.2605 14.0667L13.2953 13.9325L13.3715 13.7905L13.2605 14.0667Z" fill="black"/><path d="M18.3331 8.36214V8.11703L17.3291 8.13029V8.36214H18.3331Z" fill="black"/><path fill-rule="evenodd" clip-rule="evenodd" d="M14.2771 14.3997L14.3118 14.5269L14.8117 15.0509L14.9172 14.5544V14.5986V14.6928V14.7972L14.9377 15.1948L15.334 15.0509L15.3721 13.5459L15.4786 12.9949L15.2925 12.5187L15.1592 12.5324L14.9316 11.9778L14.8117 11.5311L14.5842 11.1254L14.5573 10.706L14.8509 10.6105L15.0516 9.86612L14.8106 9.79793L14.8913 9.55358L15.4786 9.8377L15.9462 8.95145L16.2351 8.5239H16.8673L16.9211 8.36252H16.9592V8.19407L16.9087 8.18295L16.8953 8.03407L15.8137 8.01815L15.7868 7.68175L15.1188 7.69538L15.0919 7.89882H15.2264L15.2163 8.0102L15.0392 8.00792L14.9854 8.10339L14.8577 8.07157L14.9854 7.95451L14.9047 7.73744L15.2656 7.60219L14.879 7.35898C14.879 7.35898 14.6514 6.84414 14.211 7.04757C13.7705 7.25101 14.0238 7.75221 14.0238 7.75221L13.7167 8.11817C13.7167 8.11817 13.4757 7.87495 13.209 8.1318C12.9422 8.38866 12.875 9.03874 12.875 9.03874C12.875 9.03874 12.8618 9.43744 12.7553 9.72157C12.6488 10.0068 12.8212 10.5696 12.8212 10.5696C12.8098 10.5696 12.7965 11.2186 12.8481 11.2618C12.8884 11.3015 12.8212 11.83 12.7808 12.0198C12.7416 12.2096 12.8212 12.6017 12.8884 12.6699C12.9557 12.7381 12.755 12.9949 12.755 12.9949C12.755 12.9949 12.7285 13.0737 12.6929 13.1661V14.7972L12.7981 14.6802L13.2605 14.0667L13.2953 13.9325L13.3715 13.7905L13.5553 13.4461L13.7436 13.195L13.7974 12.8426L13.7167 12.7074L13.8523 12.0073L14.1572 12.7074L14.3712 13.1813L14.2771 14.3997ZM15.1323 8.45571L15.0224 8.69779L14.9182 8.5239L14.8678 8.45116L15.1323 8.45571ZM15.6254 9.11943L15.3721 9.28195L15.2645 9.10125L15.6142 8.54208L15.6254 8.7137V9.11943ZM15.3452 7.88745L15.5189 7.90109L15.5985 8.00906L15.603 8.01702L15.3273 8.01361L15.3452 7.88745Z" fill="black"/><defs><filter id="filter0_f_18_174" x="15.2" y="2.2" width="15.0668" height="17.6" filterUnits="userSpaceOnUse" color-interpolation-filters="sRGB"><feFlood flood-opacity="0" result="BackgroundImageFix"/><feBlend mode="normal" in="SourceGraphic" in2="BackgroundImageFix" result="shape"/><feGaussianBlur stdDeviation="2.4" result="effect1_foregroundBlur_18_174"/></filter><filter id="filter1_f_18_174" x="0.2" y="2.2" width="17.2533" height="17.6" filterUnits="userSpaceOnUse" color-interpolation-filters="sRGB"><feFlood flood-opacity="0" result="BackgroundImageFix"/><feBlend mode="normal" in="SourceGraphic" in2="BackgroundImageFix" result="shape"/><feGaussianBlur stdDeviation="2.4" result="effect1_foregroundBlur_18_174"/></filter><filter id="filter2_f_18_174" x="8.03984" y="2.2" width="16.1601" height="19.6" filterUnits="userSpaceOnUse" color-interpolation-filters="sRGB"><feFlood flood-opacity="0" result="BackgroundImageFix"/><feBlend mode="normal" in="SourceGraphic" in2="BackgroundImageFix" result="shape"/><feGaussianBlur stdDeviation="2.4" result="effect1_foregroundBlur_18_174"/></filter><linearGradient id="paint0_linear_18_174" x1="15" y1="0" x2="15" y2="24" gradientUnits="userSpaceOnUse"><stop/><stop offset="1" stop-color="#2E2D2D"/></linearGradient></defs></svg>