<svg width="500" height="500" viewBox="0 0 500 500" fill="none" xmlns="http://www.w3.org/2000/svg"><path d="M0 25C0 11.1929 11.1929 0 25 0H475C488.807 0 500 11.1929 500 25V475C500 488.807 488.807 500 475 500H25C11.1929 500 0 488.807 0 475V25Z" fill="#820002"/><path fill-rule="evenodd" clip-rule="evenodd" d="M40 314.675C56.3899 314.675 72.7794 314.675 89.1693 314.675C89.1693 318.726 89.1693 322.776 89.1693 326.827C82.9682 326.736 76.7877 326.828 70.6278 327.103C70.4905 347.723 70.4446 368.345 70.4905 388.966C66.4616 388.966 62.433 388.966 58.4042 388.966C58.4042 368.253 58.4042 347.54 58.4042 326.827C52.2695 326.827 46.1346 326.827 40 326.827C40 322.776 40 318.726 40 314.675Z" fill="url(#paint0_radial_454_145)"/><path fill-rule="evenodd" clip-rule="evenodd" d="M101.805 314.675C105.834 314.675 109.862 314.675 113.891 314.675C113.891 324.985 113.891 335.296 113.891 345.606C122.223 345.606 130.556 345.606 138.888 345.606C138.888 335.296 138.888 324.985 138.888 314.675C142.917 314.675 146.945 314.675 150.974 314.675C150.974 339.439 150.974 364.202 150.974 388.966C146.945 388.966 142.917 388.966 138.888 388.966C138.934 378.655 138.888 368.344 138.751 358.034C134.65 357.851 130.53 357.759 126.39 357.758C122.249 357.759 118.129 357.851 114.029 358.034C113.891 368.344 113.845 378.655 113.891 388.966C109.862 388.966 105.834 388.966 101.805 388.966C101.805 364.202 101.805 339.439 101.805 314.675Z" fill="url(#paint1_radial_454_145)"/><path fill-rule="evenodd" clip-rule="evenodd" d="M163.61 314.675C167.639 314.675 171.667 314.675 175.696 314.675C175.65 333.639 175.696 352.603 175.834 371.567C177.528 373.27 179.221 374.973 180.915 376.676C185.768 376.86 190.621 376.86 195.474 376.676C197.168 374.973 198.862 373.27 200.556 371.567C200.693 352.603 200.739 333.639 200.693 314.675C204.722 314.675 208.75 314.675 212.779 314.675C212.825 335.388 212.779 356.101 212.642 376.814C208.659 380.818 204.676 384.823 200.693 388.827C192.361 389.012 184.028 389.012 175.696 388.827C171.713 384.823 167.73 380.818 163.747 376.814C163.61 356.101 163.564 335.388 163.61 314.675Z" fill="url(#paint2_radial_454_145)"/><path fill-rule="evenodd" clip-rule="evenodd" d="M225.415 314.675C229.539 314.583 233.658 314.675 237.776 314.951C245.901 330.645 254.095 346.294 262.361 361.901C262.498 346.159 262.545 330.417 262.498 314.675C266.528 314.675 270.555 314.675 274.584 314.675C274.584 339.439 274.584 364.202 274.584 388.966C270.461 389.058 266.341 388.965 262.223 388.689C254.098 372.996 245.904 357.346 237.639 341.74C237.501 357.482 237.455 373.223 237.501 388.966C233.472 388.966 229.444 388.966 225.415 388.966C225.415 364.202 225.415 339.439 225.415 314.675Z" fill="url(#paint3_radial_454_145)"/><path fill-rule="evenodd" clip-rule="evenodd" d="M287.22 314.675C299.581 314.629 311.942 314.675 324.303 314.813C328.286 318.818 332.269 322.822 336.252 326.827C336.436 343.489 336.436 360.152 336.252 376.814C332.269 380.818 328.286 384.823 324.303 388.827C311.942 388.966 299.581 389.012 287.22 388.966C287.22 364.202 287.22 339.439 287.22 314.675ZM299.306 326.827C305.992 326.78 312.675 326.827 319.359 326.965C320.96 328.576 322.564 330.187 324.166 331.798C324.35 345.054 324.35 358.31 324.166 371.567C322.471 373.27 320.779 374.973 319.084 376.676C312.516 376.904 305.97 376.858 299.444 376.538C299.306 359.968 299.26 343.397 299.306 326.827Z" fill="url(#paint4_radial_454_145)"/><path fill-rule="evenodd" clip-rule="evenodd" d="M349.025 314.675C365.416 314.675 381.804 314.675 398.194 314.675C398.194 318.726 398.194 322.776 398.194 326.827C385.833 326.827 373.472 326.827 361.111 326.827C361.111 333.087 361.111 339.346 361.111 345.606C367.338 345.606 373.563 345.606 379.79 345.606C379.79 349.657 379.79 353.707 379.79 357.758C373.588 357.668 367.407 357.76 361.249 358.034C361.065 364.202 361.065 370.37 361.249 376.538C373.544 376.813 385.858 376.905 398.194 376.814C398.194 380.865 398.194 384.915 398.194 388.966C381.804 388.966 365.416 388.966 349.025 388.966C349.025 364.202 349.025 339.439 349.025 314.675Z" fill="url(#paint5_radial_454_145)"/><path fill-rule="evenodd" clip-rule="evenodd" d="M410.83 314.675C423.191 314.629 435.552 314.675 447.913 314.813C451.896 318.818 455.879 322.822 459.862 326.827C460.046 333.087 460.046 339.346 459.862 345.606C455.678 349.813 451.511 354.002 447.364 358.172C451.539 368.361 455.75 378.533 459.999 388.689C455.516 388.965 451.031 389.058 446.54 388.966C442.408 378.493 438.013 368.137 433.355 357.896C429.899 357.669 426.465 357.715 423.054 358.034C422.916 368.344 422.87 378.655 422.916 388.966C418.887 388.966 414.86 388.966 410.83 388.966C410.83 364.202 410.83 339.439 410.83 314.675ZM422.916 326.827C429.602 326.78 436.285 326.827 442.969 326.965C444.57 328.576 446.174 330.187 447.776 331.798C447.96 334.744 447.96 337.689 447.776 340.635C446.174 342.246 444.57 343.857 442.969 345.468C436.285 345.606 429.602 345.652 422.916 345.606C422.916 339.346 422.916 333.087 422.916 326.827Z" fill="url(#paint6_radial_454_145)"/><path fill-rule="evenodd" clip-rule="evenodd" d="M40 112.053C50.424 112.053 60.848 112.053 71.272 112.053C75.9788 150.334 80.829 188.601 85.8221 226.853C92.1312 193.746 98.1394 160.552 103.847 127.273C113.113 127.273 122.379 127.273 131.644 127.273C131.717 137.855 131.644 148.436 131.427 159.017C128.445 159.576 125.839 160.881 123.609 162.93C123.392 164.518 123.32 166.113 123.392 167.714C116.586 167.641 109.781 167.714 102.978 167.931C106.598 169.236 110.217 170.54 113.837 171.845C117.888 172.062 121.942 172.134 125.998 172.062C125.998 180.18 125.998 188.297 125.998 196.414C121.787 197.109 117.95 198.703 114.488 201.197C114.271 204.818 114.199 208.442 114.271 212.069C115.14 212.069 116.008 212.069 116.877 212.069C116.877 218.736 116.877 225.404 116.877 232.072C114.412 232.144 111.95 232.071 109.493 231.854C103.626 228.555 97.6907 225.366 91.6856 222.288C91.1927 221.962 90.7583 222.034 90.3826 222.505C89.7489 223.411 89.17 224.353 88.6453 225.331C95.3049 229.535 101.965 233.738 108.625 237.942C107.809 239.976 107.23 242.077 106.887 244.247C97.1986 239.36 87.5708 234.287 78.0041 229.028C77.0456 230.149 76.2494 231.381 75.6153 232.724C82.0942 236.655 88.5367 240.642 94.9431 244.682C94.4645 246.955 93.5958 249.13 92.3371 251.205C83.6131 246.294 74.8539 241.438 66.06 236.638C64.5125 236.584 63.5713 237.381 63.2368 239.029C62.9115 239.523 62.9836 239.958 63.454 240.334C72.2853 245.769 81.117 251.205 89.9483 256.641C89.1422 258.472 88.2735 260.284 87.3423 262.076C92.4401 261.668 97.3628 260.29 102.11 257.945C110.796 253.307 119.483 248.669 128.17 244.03C131.854 242.507 135.474 242.652 139.028 244.465C147.425 248.958 155.822 253.452 164.219 257.945C168.937 260.212 173.86 261.662 178.987 262.294C176.236 256.351 173.485 250.408 170.734 244.465C166.973 244.247 163.209 244.175 159.442 244.247C158.577 240.274 157.491 236.361 156.184 232.507C153.981 232.084 151.737 231.939 149.452 232.072C149.452 225.404 149.452 218.736 149.452 212.069C150.321 212.069 151.189 212.069 152.058 212.069C152.13 208.442 152.058 204.818 151.841 201.197C148.379 198.703 144.542 197.109 140.331 196.414C140.331 188.297 140.331 180.18 140.331 172.062C143.853 171.795 147.255 172.085 150.538 172.932C153.667 190.482 156.853 208.021 160.093 225.549C160.781 221.34 161.506 217.136 162.265 212.938C171.435 215.215 180.628 217.462 189.845 219.678C190.313 219.971 190.603 220.406 190.714 220.983C187.178 245.257 183.703 269.536 180.29 293.82C165.233 293.82 150.176 293.82 135.119 293.82C135.119 278.746 135.119 263.671 135.119 248.596C132.904 248.455 130.733 248.672 128.604 249.248C122.02 252.616 115.505 256.095 109.059 259.685C102.15 263.651 94.7668 266.26 86.908 267.512C79.824 268.512 72.73 269.382 65.6256 270.121C70.766 275.707 75.3265 281.722 79.3071 288.167C80.3508 289.966 81.1474 291.85 81.696 293.82C76.3767 293.961 71.0922 293.815 65.8428 293.386C57.2074 232.938 48.5933 172.494 40 112.053Z" fill="url(#paint7_radial_454_145)"/><path fill-rule="evenodd" clip-rule="evenodd" d="M175.078 112.053C185.502 112.053 195.926 112.053 206.35 112.053C202.626 138.15 198.862 164.241 195.057 190.326C185.791 190.683 176.525 191.118 167.26 191.631C166.391 191.486 165.522 191.34 164.654 191.196C168.341 164.848 171.816 138.467 175.078 112.053Z" fill="url(#paint8_radial_454_145)"/><path fill-rule="evenodd" clip-rule="evenodd" d="M243.702 112.053C252.927 111.911 262.122 112.055 271.282 112.488C278.062 138.285 284.794 164.086 291.479 189.891C285.111 189.591 278.74 189.228 272.368 188.804C270.926 188.778 269.693 188.271 268.676 187.282C268.285 177.267 267.56 167.266 266.505 157.277C264.811 153.26 262.422 149.709 259.338 146.623C257.562 146.09 256.042 146.452 254.778 147.711C252.219 150.71 250.191 154.043 248.697 157.712C247.828 167.402 247.251 177.114 246.96 186.847C246.008 188.013 244.775 188.665 243.268 188.804C237.113 189.213 230.963 189.575 224.809 189.891C224.448 189.746 224.083 189.601 223.723 189.456C230.52 163.684 237.178 137.883 243.702 112.053Z" fill="url(#paint9_radial_454_145)"/><path fill-rule="evenodd" clip-rule="evenodd" d="M336.649 112.053C369.368 111.98 402.09 112.053 434.809 112.27C441.541 119.01 448.273 125.751 455.005 132.491C455.296 158.147 455.296 183.803 455.005 209.459C448.13 216.344 441.25 223.23 434.374 230.115C437.371 237.445 440.412 244.765 443.495 252.075C437.454 253.659 431.373 255.108 425.253 256.423C424.606 255.852 423.885 255.417 423.082 255.119C419.668 255.955 416.267 256.825 412.875 257.728C411.732 257.128 410.938 256.186 410.486 254.901C407.867 254.827 405.261 254.61 402.668 254.249C401.478 251.4 400.466 248.501 399.628 245.552C392.101 245.552 384.569 245.552 377.042 245.552C377.16 244.413 377.016 243.326 376.608 242.291C367.921 240.261 359.235 240.261 350.548 242.291C350.14 243.326 349.996 244.413 350.114 245.552C347.972 245.42 345.875 245.566 343.816 245.987C341.44 252.688 338.977 259.356 336.432 265.99C336.141 249.756 336.141 233.521 336.432 217.287C342.383 215.598 348.389 214.076 354.457 212.721C355.79 211.287 356.729 209.62 357.28 207.72C358.409 203.25 358.696 198.757 358.149 194.24C357.437 193.235 356.498 192.583 355.326 192.283C349.015 191.64 342.717 191.132 336.432 190.761C336.072 164.494 336.146 138.258 336.649 112.053ZM366.184 140.753C385.872 140.753 405.565 140.753 425.253 140.753C425.253 160.466 425.253 180.18 425.253 199.893C405.565 199.893 385.872 199.893 366.184 199.893C366.184 180.18 366.184 160.466 366.184 140.753Z" fill="url(#paint10_radial_454_145)"/><path fill-rule="evenodd" clip-rule="evenodd" d="M134.685 127.273C137.291 127.273 139.897 127.273 142.503 127.273C144.819 140.753 147.136 154.233 149.452 167.714C147.28 167.714 145.109 167.714 142.937 167.714C143.009 166.113 142.937 164.518 142.72 162.93C140.497 160.883 137.891 159.578 134.902 159.017C134.685 148.436 134.612 137.855 134.685 127.273Z" fill="url(#paint11_radial_454_145)"/><path fill-rule="evenodd" clip-rule="evenodd" d="M214.168 225.549C223.501 227.813 232.766 230.35 241.965 233.159C244.158 233.905 245.822 235.283 246.96 237.29C248.25 249.826 249.483 262.364 250.652 274.904C250.473 275.315 250.187 275.605 249.783 275.774C241.934 277.23 234.403 279.622 227.198 282.949C226.728 283.456 226.364 284.035 226.112 284.689C225.895 287.729 225.821 290.773 225.895 293.82C216.195 293.82 206.494 293.82 196.794 293.82C202.517 271.045 208.309 248.288 214.168 225.549Z" fill="url(#paint12_radial_454_145)"/><path fill-rule="evenodd" clip-rule="evenodd" d="M300.6 225.549C306.806 248.075 312.887 270.687 318.842 293.386C309 293.82 299.158 293.965 289.307 293.82C289.381 290.628 289.307 287.439 289.09 284.254C288.886 283.631 288.525 283.124 288.004 282.732C280.642 279.55 273.041 277.158 265.202 275.557C265.901 262.932 266.913 250.321 268.242 237.725C269.614 235.183 271.717 233.517 274.54 232.724C283.24 230.185 291.926 227.794 300.6 225.549Z" fill="url(#paint13_radial_454_145)"/><path fill-rule="evenodd" clip-rule="evenodd" d="M445.667 262.511C446.653 262.355 447.448 262.645 448.056 263.381C452.165 273.493 456.147 283.639 460 293.82C442.483 293.82 424.962 293.82 407.446 293.82C407.446 292.951 407.446 292.081 407.446 291.211C410.056 291.284 412.662 291.211 415.264 290.994C415.463 290.814 415.607 290.596 415.698 290.342C414.291 286.476 412.844 282.635 411.355 278.818C412.202 277.36 412.927 275.838 413.526 274.252C418.252 272.744 423.03 271.439 427.859 270.339C427.859 269.614 427.859 268.889 427.859 268.164C433.918 266.529 439.851 264.645 445.667 262.511Z" fill="url(#paint14_radial_454_145)"/><defs><radialGradient id="paint0_radial_454_145" cx="0" cy="0" r="1" gradientUnits="userSpaceOnUse" gradientTransform="translate(250 239.5) rotate(88.3108) scale(186.581 282.903)"><stop stop-color="#F1F1F1"/><stop offset="1" stop-color="#D9B5B5"/></radialGradient><radialGradient id="paint1_radial_454_145" cx="0" cy="0" r="1" gradientUnits="userSpaceOnUse" gradientTransform="translate(250 239.5) rotate(88.3108) scale(186.581 282.903)"><stop stop-color="#F1F1F1"/><stop offset="1" stop-color="#D9B5B5"/></radialGradient><radialGradient id="paint2_radial_454_145" cx="0" cy="0" r="1" gradientUnits="userSpaceOnUse" gradientTransform="translate(250 239.5) rotate(88.3108) scale(186.581 282.903)"><stop stop-color="#F1F1F1"/><stop offset="1" stop-color="#D9B5B5"/></radialGradient><radialGradient id="paint3_radial_454_145" cx="0" cy="0" r="1" gradientUnits="userSpaceOnUse" gradientTransform="translate(250 239.5) rotate(88.3108) scale(186.581 282.903)"><stop stop-color="#F1F1F1"/><stop offset="1" stop-color="#D9B5B5"/></radialGradient><radialGradient id="paint4_radial_454_145" cx="0" cy="0" r="1" gradientUnits="userSpaceOnUse" gradientTransform="translate(250 239.5) rotate(88.3108) scale(186.581 282.903)"><stop stop-color="#F1F1F1"/><stop offset="1" stop-color="#D9B5B5"/></radialGradient><radialGradient id="paint5_radial_454_145" cx="0" cy="0" r="1" gradientUnits="userSpaceOnUse" gradientTransform="translate(250 239.5) rotate(88.3108) scale(186.581 282.903)"><stop stop-color="#F1F1F1"/><stop offset="1" stop-color="#D9B5B5"/></radialGradient><radialGradient id="paint6_radial_454_145" cx="0" cy="0" r="1" gradientUnits="userSpaceOnUse" gradientTransform="translate(250 239.5) rotate(88.3108) scale(186.581 282.903)"><stop stop-color="#F1F1F1"/><stop offset="1" stop-color="#D9B5B5"/></radialGradient><radialGradient id="paint7_radial_454_145" cx="0" cy="0" r="1" gradientUnits="userSpaceOnUse" gradientTransform="translate(250 239.5) rotate(88.3108) scale(186.581 282.903)"><stop stop-color="#F1F1F1"/><stop offset="1" stop-color="#D9B5B5"/></radialGradient><radialGradient id="paint8_radial_454_145" cx="0" cy="0" r="1" gradientUnits="userSpaceOnUse" gradientTransform="translate(250 239.5) rotate(88.3108) scale(186.581 282.903)"><stop stop-color="#F1F1F1"/><stop offset="1" stop-color="#D9B5B5"/></radialGradient><radialGradient id="paint9_radial_454_145" cx="0" cy="0" r="1" gradientUnits="userSpaceOnUse" gradientTransform="translate(250 239.5) rotate(88.3108) scale(186.581 282.903)"><stop stop-color="#F1F1F1"/><stop offset="1" stop-color="#D9B5B5"/></radialGradient><radialGradient id="paint10_radial_454_145" cx="0" cy="0" r="1" gradientUnits="userSpaceOnUse" gradientTransform="translate(250 239.5) rotate(88.3108) scale(186.581 282.903)"><stop stop-color="#F1F1F1"/><stop offset="1" stop-color="#D9B5B5"/></radialGradient><radialGradient id="paint11_radial_454_145" cx="0" cy="0" r="1" gradientUnits="userSpaceOnUse" gradientTransform="translate(250 239.5) rotate(88.3108) scale(186.581 282.903)"><stop stop-color="#F1F1F1"/><stop offset="1" stop-color="#D9B5B5"/></radialGradient><radialGradient id="paint12_radial_454_145" cx="0" cy="0" r="1" gradientUnits="userSpaceOnUse" gradientTransform="translate(250 239.5) rotate(88.3108) scale(186.581 282.903)"><stop stop-color="#F1F1F1"/><stop offset="1" stop-color="#D9B5B5"/></radialGradient><radialGradient id="paint13_radial_454_145" cx="0" cy="0" r="1" gradientUnits="userSpaceOnUse" gradientTransform="translate(250 239.5) rotate(88.3108) scale(186.581 282.903)"><stop stop-color="#F1F1F1"/><stop offset="1" stop-color="#D9B5B5"/></radialGradient><radialGradient id="paint14_radial_454_145" cx="0" cy="0" r="1" gradientUnits="userSpaceOnUse" gradientTransform="translate(250 239.5) rotate(88.3108) scale(186.581 282.903)"><stop stop-color="#F1F1F1"/><stop offset="1" stop-color="#D9B5B5"/></radialGradient></defs></svg>